<svg xmlns="http://www.w3.org/2000/svg" version="1.1" xmlns:xlink="http://www.w3.org/1999/xlink" xmlns:svgjs="http://svgjs.com/svgjs" width="1000" height="1000"><rect width="1000" height="1000" rx="450" ry="450" fill="#e1dbdb"></rect><g transform="matrix(33.333333333333336,0,0,33.333333333333336,95.39264508088428,99.95757135748858)"><svg xmlns="http://www.w3.org/2000/svg" version="1.1" xmlns:xlink="http://www.w3.org/1999/xlink" xmlns:svgjs="http://svgjs.com/svgjs" width="24" height="24"><svg width="24" height="24" viewBox="0 0 24 24" fill="none" xmlns="http://www.w3.org/2000/svg">
<g clip-path="url(#clip0)">
<path d="M20.73 19.86L18.42 19.365L17.295 19.11L17.43 17.97V17.79C17.43 17.55 17.4 17.31 17.31 17.085L17.04 16.485L17.4 15.885C17.61 15.555 17.7 15.165 17.7 14.73C17.7 14.28 17.58 13.86 17.325 13.53L16.875 12.93L17.175 12.24C17.295 11.97 17.34 11.685 17.34 11.4C17.34 10.995 17.34 9.77997 15.45 9.05997C14.8674 8.87438 14.2612 8.77335 13.65 8.75997L11.595 8.60997L12.57 6.83997C13.365 5.41497 13.8 4.13997 13.8 3.23997C13.8 2.41497 13.53 1.67997 12.915 1.43997C10.8 0.509974 9.29997 1.94997 8.20497 3.71997C7.34997 5.14497 6.26997 6.98997 5.62497 8.35497C4.22997 11.295 2.15997 13.425 2.15997 16.38C2.15997 19.065 3.95997 21.165 7.25997 22.275C11.295 23.625 17.325 24 19.95 24C21.825 24 22.86 23.265 22.86 21.93C22.86 20.535 21.54 20.04 20.73 19.86Z" fill="#FFD338"></path>
<path d="M19.89 18.675L15.84 17.79C16.155 17.565 16.5 17.085 16.5 16.485C16.5 15.795 16.14 15.405 15.855 15.195C16.23 14.895 16.755 14.385 16.755 13.44C16.755 12.435 16.065 11.91 15.705 11.67C15.99 11.4 16.395 10.86 16.395 10.11C16.395 8.78998 15.375 8.18998 14.55 7.85998C13.5566 7.60173 12.5307 7.49055 11.505 7.52998C9.68999 7.52998 8.03999 7.66498 7.24499 7.66498C6.31499 7.66498 6.43499 7.18498 6.76499 6.73498C6.98999 6.49498 9.64499 2.98498 10.14 2.35498C10.485 1.90498 10.89 1.45498 11.19 1.61998C11.52 1.79998 11.385 2.60998 11.04 3.47998C10.53 4.85998 9.79499 5.74498 9.62999 6.04498L10.86 6.79498C11.325 6.19498 12.885 3.61498 12.885 1.94998C12.885 1.19998 12.585 0.569976 12.045 0.224976C11.49 -0.0900239 10.77 -0.0750239 10.14 0.299976C9.71999 0.554976 9.29999 0.914976 8.93999 1.37998L5.18999 6.13498C4.13999 7.52998 4.61999 9.25498 6.89999 9.25498C7.70999 9.25498 10.335 9.05998 11.355 9.05998C12.525 9.05998 13.095 9.11998 13.5 9.17998C14.25 9.28498 14.7 9.62998 14.7 10.08C14.7 10.425 14.55 10.65 14.28 10.83C14.01 11.025 13.77 11.325 13.77 11.73C13.77 12.195 14.205 12.39 14.49 12.585C14.88 12.84 15.105 13.005 15.105 13.41C15.105 13.77 14.835 13.98 14.535 14.205C14.28 14.4 13.95 14.61 13.95 15.06C13.95 15.45 14.25 15.66 14.43 15.81C14.625 15.96 14.835 16.125 14.835 16.455C14.835 16.785 14.685 16.935 14.295 17.16C13.995 17.34 13.545 17.655 13.545 18.12C13.545 18.63 13.92 18.87 14.355 18.975C15.405 19.23 18.555 19.905 19.62 20.145C19.965 20.22 20.31 20.34 20.31 20.625C20.31 20.925 19.86 21.045 19.2 21.045C16.95 21.045 10.65 20.595 6.95999 19.305C4.45499 18.465 3.07499 16.905 3.07499 15.06C3.07499 13.44 4.15499 12.015 5.32499 11.19L4.27499 10.11C3.43704 10.6524 2.74109 11.3875 2.24528 12.2539C1.74947 13.1203 1.4682 14.0927 1.42499 15.09C1.42499 17.34 2.77499 19.65 6.46499 20.895C10.395 22.215 16.35 22.62 19.125 22.62C21.03 22.62 21.945 21.84 21.945 20.655C21.93 19.515 21 18.9 19.89 18.675Z" fill="#222222"></path>
</g>
<defs>
<clipPath id="clip0">
<rect width="24" height="24" fill="white"></rect>
</clipPath>
</defs>
</svg></svg></g></svg>